<svg xmlns="http://www.w3.org/2000/svg" xmlns:xlink="http://www.w3.org/1999/xlink" width="1688" height="856" viewBox="0 0 1688 856"><rect width="100%" height="100%" fill="#DDDDDD"/><path d="M399.07 482.61L425.46 482.61L425.46 501.38L344.26 501.38L344.26 482.61L374.00 482.61L374.00 397.04Q374.00 391.97 374.31 386.59L374.31 386.59L353.20 404.25Q351.37 405.67 349.59 406.03Q347.82 406.38 346.24 406.08Q344.67 405.77 343.45 405.01Q342.23 404.25 341.63 403.34L341.63 403.34L333.71 392.48L378.47 354.41L399.07 354.41L399.07 482.61ZM534.68 354.62L491.14 407.90L486.06 414.20Q490.32 412.06 495.25 410.90Q500.17 409.73 505.85 409.73L505.85 409.73Q514.18 409.73 522.04 412.47Q529.91 415.21 535.90 420.74Q541.89 426.27 545.54 434.50Q549.19 442.72 549.19 453.68L549.19 453.68Q549.19 463.93 545.44 472.91Q541.68 481.90 534.88 488.60Q528.08 495.29 518.49 499.15Q508.90 503.01 497.33 503.01L497.33 503.01Q485.55 503.01 476.21 499.25Q466.88 495.50 460.28 488.75Q453.68 482.00 450.18 472.51Q446.68 463.02 446.68 451.45L446.68 451.45Q446.68 441.09 450.89 430.18Q455.10 419.27 463.93 407.50L463.93 407.50L498.95 360.50Q500.78 358.07 504.28 356.34Q507.78 354.62 512.35 354.62L512.35 354.62L534.68 354.62ZM496.82 482.51L496.82 482.51Q502.81 482.51 507.83 480.48Q512.86 478.45 516.46 474.79Q520.06 471.14 522.09 466.21Q524.12 461.29 524.12 455.51L524.12 455.51Q524.12 449.21 522.19 444.19Q520.27 439.17 516.71 435.66Q513.16 432.16 508.19 430.33Q503.21 428.51 497.23 428.51L497.23 428.51Q491.24 428.51 486.36 430.54Q481.49 432.57 478.04 436.17Q474.59 439.77 472.66 444.70Q470.73 449.62 470.73 455.30L470.73 455.30Q470.73 461.39 472.41 466.42Q474.08 471.44 477.38 474.99Q480.68 478.55 485.55 480.53Q490.42 482.51 496.82 482.51ZM614.76 483.42L614.76 483.42Q620.95 483.42 625.62 481.64Q630.29 479.87 633.49 476.72Q636.69 473.57 638.31 469.21Q639.93 464.84 639.93 459.77L639.93 459.77Q639.93 447.69 633.24 441.50Q626.54 435.31 614.76 435.31L614.76 435.31Q602.99 435.31 596.29 441.50Q589.59 447.69 589.59 459.77L589.59 459.77Q589.59 464.84 591.21 469.21Q592.84 473.57 596.04 476.72Q599.23 479.87 603.90 481.64Q608.57 483.42 614.76 483.42ZM614.76 371.87L614.76 371.87Q609.18 371.87 605.12 373.60Q601.06 375.32 598.37 378.21Q595.68 381.11 594.41 384.86Q593.14 388.62 593.14 392.78L593.14 392.78Q593.14 397.14 594.21 401.25Q595.27 405.37 597.81 408.56Q600.35 411.76 604.51 413.69Q608.67 415.62 614.76 415.62L614.76 415.62Q620.85 415.62 625.01 413.69Q629.18 411.76 631.71 408.56Q634.25 405.37 635.32 401.25Q636.38 397.14 636.38 392.78L636.38 392.78Q636.38 388.62 635.06 384.86Q633.74 381.11 631.10 378.21Q628.46 375.32 624.40 373.60Q620.34 371.87 614.76 371.87ZM639.53 424.85L639.53 424.85Q652.93 429.22 659.32 438.20Q665.72 447.18 665.72 460.18L665.72 460.18Q665.72 469.92 662.01 477.84Q658.31 485.75 651.61 491.34Q644.91 496.92 635.52 499.96Q626.13 503.01 614.76 503.01L614.76 503.01Q603.39 503.01 594.01 499.96Q584.62 496.92 577.92 491.34Q571.22 485.75 567.51 477.84Q563.81 469.92 563.81 460.18L563.81 460.18Q563.81 447.18 570.20 438.20Q576.60 429.22 590.00 424.85L590.00 424.85Q579.34 420.39 574.01 412.17Q568.68 403.94 568.68 392.37L568.68 392.37Q568.68 384.05 572.08 376.84Q575.48 369.64 581.57 364.31Q587.66 358.98 596.14 355.99Q604.61 352.99 614.76 352.99L614.76 352.99Q624.91 352.99 633.39 355.99Q641.86 358.98 647.95 364.31Q654.04 369.64 657.44 376.84Q660.84 384.05 660.84 392.37L660.84 392.37Q660.84 403.94 655.51 412.17Q650.19 420.39 639.53 424.85ZM732.50 483.42L732.50 483.42Q738.69 483.42 743.36 481.64Q748.03 479.87 751.23 476.72Q754.43 473.57 756.05 469.21Q757.67 464.84 757.67 459.77L757.67 459.77Q757.67 447.69 750.98 441.50Q744.28 435.31 732.50 435.31L732.50 435.31Q720.73 435.31 714.03 441.50Q707.33 447.69 707.33 459.77L707.33 459.77Q707.33 464.84 708.95 469.21Q710.58 473.57 713.78 476.72Q716.97 479.87 721.64 481.64Q726.31 483.42 732.50 483.42ZM732.50 371.87L732.50 371.87Q726.92 371.87 722.86 373.60Q718.80 375.32 716.11 378.21Q713.42 381.11 712.15 384.86Q710.88 388.62 710.88 392.78L710.88 392.78Q710.88 397.14 711.95 401.25Q713.01 405.37 715.55 408.56Q718.09 411.76 722.25 413.69Q726.41 415.62 732.50 415.62L732.50 415.62Q738.59 415.62 742.75 413.69Q746.92 411.76 749.45 408.56Q751.99 405.37 753.06 401.25Q754.12 397.14 754.12 392.78L754.12 392.78Q754.12 388.62 752.80 384.86Q751.48 381.11 748.84 378.21Q746.20 375.32 742.14 373.60Q738.08 371.87 732.50 371.87ZM757.27 424.85L757.27 424.85Q770.67 429.22 777.06 438.20Q783.46 447.18 783.46 460.18L783.46 460.18Q783.46 469.92 779.75 477.84Q776.05 485.75 769.35 491.34Q762.65 496.92 753.26 499.96Q743.87 503.01 732.50 503.01L732.50 503.01Q721.13 503.01 711.75 499.96Q702.36 496.92 695.66 491.34Q688.96 485.75 685.25 477.84Q681.55 469.92 681.55 460.18L681.55 460.18Q681.55 447.18 687.94 438.20Q694.34 429.22 707.74 424.85L707.74 424.85Q697.08 420.39 691.75 412.17Q686.42 403.94 686.42 392.37L686.42 392.37Q686.42 384.05 689.82 376.84Q693.22 369.64 699.31 364.31Q705.40 358.98 713.88 355.99Q722.35 352.99 732.50 352.99L732.50 352.99Q742.65 352.99 751.13 355.99Q759.60 358.98 765.69 364.31Q771.78 369.64 775.18 376.84Q778.58 384.05 778.58 392.37L778.58 392.37Q778.58 403.94 773.25 412.17Q767.93 420.39 757.27 424.85ZM947.48 467.79L934.18 480.88L899.77 446.47L865.06 481.08L851.76 467.99L886.48 433.18L853.39 400.09L866.58 386.89L899.67 419.98L932.56 387.10L945.96 400.29L912.97 433.28L947.48 467.79ZM1066.64 483.42L1066.64 483.42Q1072.83 483.42 1077.50 481.64Q1082.17 479.87 1085.37 476.72Q1088.56 473.57 1090.19 469.21Q1091.81 464.84 1091.81 459.77L1091.81 459.77Q1091.81 447.69 1085.11 441.50Q1078.41 435.31 1066.64 435.31L1066.64 435.31Q1054.87 435.31 1048.17 441.50Q1041.47 447.69 1041.47 459.77L1041.47 459.77Q1041.47 464.84 1043.09 469.21Q1044.72 473.57 1047.91 476.72Q1051.11 479.87 1055.78 481.64Q1060.45 483.42 1066.64 483.42ZM1066.64 371.87L1066.64 371.87Q1061.06 371.87 1057.00 373.60Q1052.94 375.32 1050.25 378.21Q1047.56 381.11 1046.29 384.86Q1045.02 388.62 1045.02 392.78L1045.02 392.78Q1045.02 397.14 1046.09 401.25Q1047.15 405.37 1049.69 408.56Q1052.23 411.76 1056.39 413.69Q1060.55 415.62 1066.64 415.62L1066.64 415.62Q1072.73 415.62 1076.89 413.69Q1081.05 411.76 1083.59 408.56Q1086.13 405.37 1087.19 401.25Q1088.26 397.14 1088.26 392.78L1088.26 392.78Q1088.26 388.62 1086.94 384.86Q1085.62 381.11 1082.98 378.21Q1080.34 375.32 1076.28 373.60Q1072.22 371.87 1066.64 371.87ZM1091.41 424.85L1091.41 424.85Q1104.80 429.22 1111.20 438.20Q1117.59 447.18 1117.59 460.18L1117.59 460.18Q1117.59 469.92 1113.89 477.84Q1110.18 485.75 1103.48 491.34Q1096.79 496.92 1087.40 499.96Q1078.01 503.01 1066.64 503.01L1066.64 503.01Q1055.27 503.01 1045.88 499.96Q1036.49 496.92 1029.80 491.34Q1023.10 485.75 1019.39 477.84Q1015.69 469.92 1015.69 460.18L1015.69 460.18Q1015.69 447.18 1022.08 438.20Q1028.48 429.22 1041.87 424.85L1041.87 424.85Q1031.22 420.39 1025.89 412.17Q1020.56 403.94 1020.56 392.37L1020.56 392.37Q1020.56 384.05 1023.96 376.84Q1027.36 369.64 1033.45 364.31Q1039.54 358.98 1048.02 355.99Q1056.49 352.99 1066.64 352.99L1066.64 352.99Q1076.79 352.99 1085.27 355.99Q1093.74 358.98 1099.83 364.31Q1105.92 369.64 1109.32 376.84Q1112.72 384.05 1112.72 392.37L1112.72 392.37Q1112.72 403.94 1107.39 412.17Q1102.06 420.39 1091.41 424.85ZM1171.90 377.35L1166.72 407.90Q1171.59 406.89 1176.06 406.43Q1180.52 405.97 1184.68 405.97L1184.68 405.97Q1196.26 405.97 1205.09 409.43Q1213.92 412.88 1219.91 418.97Q1225.89 425.06 1228.94 433.23Q1231.98 441.40 1231.98 450.84L1231.98 450.84Q1231.98 462.51 1227.87 472.15Q1223.76 481.80 1216.45 488.65Q1209.15 495.50 1199.15 499.25Q1189.15 503.01 1177.38 503.01L1177.38 503.01Q1170.47 503.01 1164.28 501.59Q1158.09 500.17 1152.66 497.78Q1147.23 495.40 1142.61 492.30Q1137.99 489.20 1134.34 485.75L1134.34 485.75L1142.05 475.10Q1144.49 471.64 1148.45 471.64L1148.45 471.64Q1150.99 471.64 1153.63 473.27Q1156.26 474.89 1159.66 476.82Q1163.07 478.75 1167.68 480.37Q1172.30 482.00 1178.80 482.00L1178.80 482.00Q1185.70 482.00 1190.98 479.76Q1196.26 477.53 1199.76 473.52Q1203.26 469.51 1205.04 463.98Q1206.81 458.45 1206.81 451.95L1206.81 451.95Q1206.81 439.98 1199.86 433.23Q1192.91 426.48 1179.31 426.48L1179.31 426.48Q1168.85 426.48 1157.89 430.33L1157.89 430.33L1142.26 425.87L1154.44 354.62L1226.91 354.62L1226.91 365.27Q1226.91 370.65 1223.56 374.00Q1220.21 377.35 1212.19 377.35L1212.19 377.35L1171.90 377.35ZM1339.78 354.62L1296.23 407.90L1291.16 414.20Q1295.42 412.06 1300.34 410.90Q1305.27 409.73 1310.95 409.73L1310.95 409.73Q1319.27 409.73 1327.14 412.47Q1335.01 415.21 1340.99 420.74Q1346.98 426.27 1350.64 434.50Q1354.29 442.72 1354.29 453.68L1354.29 453.68Q1354.29 463.93 1350.54 472.91Q1346.78 481.90 1339.98 488.60Q1333.18 495.29 1323.59 499.15Q1314.00 503.01 1302.42 503.01L1302.42 503.01Q1290.65 503.01 1281.31 499.25Q1271.97 495.50 1265.38 488.75Q1258.78 482.00 1255.28 472.51Q1251.78 463.02 1251.78 451.45L1251.78 451.45Q1251.78 441.09 1255.99 430.18Q1260.20 419.27 1269.03 407.50L1269.03 407.50L1304.05 360.50Q1305.88 358.07 1309.38 356.34Q1312.88 354.62 1317.45 354.62L1317.45 354.62L1339.78 354.62ZM1301.92 482.51L1301.92 482.51Q1307.91 482.51 1312.93 480.48Q1317.95 478.45 1321.56 474.79Q1325.16 471.14 1327.19 466.21Q1329.22 461.29 1329.22 455.51L1329.22 455.51Q1329.22 449.21 1327.29 444.19Q1325.36 439.17 1321.81 435.66Q1318.26 432.16 1313.29 430.33Q1308.31 428.51 1302.32 428.51L1302.32 428.51Q1296.33 428.51 1291.46 430.54Q1286.59 432.57 1283.14 436.17Q1279.69 439.77 1277.76 444.70Q1275.83 449.62 1275.83 455.30L1275.83 455.30Q1275.83 461.39 1277.51 466.42Q1279.18 471.44 1282.48 474.99Q1285.78 478.55 1290.65 480.53Q1295.52 482.51 1301.92 482.51Z" fill="#999999"/></svg>